<?xml version="1.0" encoding="UTF-8" standalone="no"?>
<!-- Created with Inkscape (http://www.inkscape.org/) -->

<svg
   xmlns:dc="http://purl.org/dc/elements/1.1/"
   xmlns:cc="http://creativecommons.org/ns#"
   xmlns:rdf="http://www.w3.org/1999/02/22-rdf-syntax-ns#"
   xmlns:svg="http://www.w3.org/2000/svg"
   xmlns="http://www.w3.org/2000/svg"
   xmlns:sodipodi="http://sodipodi.sourceforge.net/DTD/sodipodi-0.dtd"
   xmlns:inkscape="http://www.inkscape.org/namespaces/inkscape"
   width="213.28223mm"
   height="112.28222mm"
   viewBox="0 0 755.72442 397.85038"
   id="svg2"
   version="1.1"
   inkscape:version="0.91 r13725"
   sodipodi:docname="top_and_bottom.svg">
  <defs
     id="defs4">
    <marker
       style="overflow:visible"
       refY="0"
       refX="0"
       orient="auto"
       id="DistanceX">
      <path
         id="path4190"
         style="stroke:#000000;stroke-width:0.5"
         d="M 3,-3 -3,3 M 0,-5 0,5"
         inkscape:connector-curvature="0" />
    </marker>
    <pattern
       y="0"
       x="0"
       width="8"
       patternUnits="userSpaceOnUse"
       id="Hatch"
       height="8">
      <path
         id="path4193"
         stroke-width="0.25"
         stroke="#000000"
         linecap="square"
         d="M8 4 l-4,4" />
      <path
         id="path4195"
         stroke-width="0.25"
         stroke="#000000"
         linecap="square"
         d="M6 2 l-4,4" />
      <path
         id="path4197"
         stroke-width="0.25"
         stroke="#000000"
         linecap="square"
         d="M4 0 l-4,4" />
    </pattern>
    <symbol
       id="*MODEL_SPACE" />
    <symbol
       id="*PAPER_SPACE" />
    <marker
       style="overflow:visible"
       refY="0"
       refX="0"
       orient="auto"
       id="DistanceX-5">
      <path
         id="path4266"
         style="stroke:#000000;stroke-width:0.5"
         d="M 3,-3 -3,3 M 0,-5 0,5"
         inkscape:connector-curvature="0" />
    </marker>
    <pattern
       y="0"
       x="0"
       width="8"
       patternUnits="userSpaceOnUse"
       id="Hatch-8"
       height="8">
      <path
         id="path4269"
         stroke-width="0.25"
         stroke="#000000"
         linecap="square"
         d="M8 4 l-4,4" />
      <path
         id="path4271"
         stroke-width="0.25"
         stroke="#000000"
         linecap="square"
         d="M6 2 l-4,4" />
      <path
         id="path4273"
         stroke-width="0.25"
         stroke="#000000"
         linecap="square"
         d="M4 0 l-4,4" />
    </pattern>
    <symbol
       id="*MODEL_SPACE-2" />
    <symbol
       id="*PAPER_SPACE-0" />
  </defs>
  <sodipodi:namedview
     id="base"
     pagecolor="#ffffff"
     bordercolor="#666666"
     borderopacity="1.0"
     inkscape:pageopacity="0.0"
     inkscape:pageshadow="2"
     inkscape:zoom="0.98994949"
     inkscape:cx="351.53676"
     inkscape:cy="222.93202"
     inkscape:document-units="mm"
     inkscape:current-layer="layer1"
     showgrid="false"
     fit-margin-top="6"
     fit-margin-left="6"
     fit-margin-right="6"
     fit-margin-bottom="6"
     inkscape:window-width="1415"
     inkscape:window-height="877"
     inkscape:window-x="0"
     inkscape:window-y="23"
     inkscape:window-maximized="0" />
  <metadata
     id="metadata7">
    <rdf:RDF>
      <cc:Work
         rdf:about="">
        <dc:format>image/svg+xml</dc:format>
        <dc:type
           rdf:resource="http://purl.org/dc/dcmitype/StillImage" />
        <dc:title></dc:title>
      </cc:Work>
    </rdf:RDF>
  </metadata>
  <g
     inkscape:label="Layer 1"
     inkscape:groupmode="layer"
     id="layer1"
     transform="translate(21.259843,-675.77166)">
    <g
       id="g4201"
       inkscape:label="0"
       transform="translate(354.83071,-0.49999528)"
       style="fill:none;stroke:#000000;stroke-opacity:1;stroke-width:0.09;stroke-miterlimit:4;stroke-dasharray:none">
      <path
         id="path4203"
         style="fill:none;stroke:#000000;stroke-opacity:1;stroke-width:0.09;stroke-miterlimit:4;stroke-dasharray:none"
         d="m -17.096457,720.88583 a 5.757874,5.757874 0 1 0 -11.515748,0 5.757874,5.757874 0 1 0 11.515748,0 z"
         inkscape:connector-curvature="0" />
      <path
         id="path4205"
         style="fill:none;stroke:#000000;stroke-opacity:1;stroke-width:0.09;stroke-miterlimit:4;stroke-dasharray:none"
         d="m -325.7185,1029.5079 a 5.757875,5.757875 0 1 0 -11.51575,0 5.757875,5.757875 0 1 0 11.51575,0 z"
         inkscape:connector-curvature="0" />
      <path
         id="path4207"
         style="fill:none;stroke:#000000;stroke-opacity:1;stroke-width:0.09;stroke-miterlimit:4;stroke-dasharray:none"
         d="m -17.096457,1029.5079 a 5.757874,5.757874 0 1 0 -11.515748,0 5.757874,5.757874 0 1 0 11.515748,0 z"
         inkscape:connector-curvature="0" />
      <path
         id="path4209"
         style="fill:none;stroke:#000000;stroke-opacity:1;stroke-width:0.09;stroke-miterlimit:4;stroke-dasharray:none"
         d="m -325.7185,720.88583 a 5.757875,5.757875 0 1 0 -11.51575,0 5.757875,5.757875 0 1 0 11.51575,0 z"
         inkscape:connector-curvature="0" />
      <path
         id="path4211"
         style="fill:none;stroke:#000000;stroke-opacity:1;stroke-width:0.09;stroke-miterlimit:4;stroke-dasharray:none"
         d="m -354.33071,720.88583 a 22.854331,22.854331 0 0 1 22.85433,-22.85433 l 308.622049,0 A 22.854331,22.854331 0 0 1 0,720.88583 l 0,308.62207 a 22.854331,22.854331 0 0 1 -22.854331,22.8543 l -308.622049,0 a 22.854331,22.854331 0 0 1 -22.85433,-22.8543 l 0,-308.62207 z"
         inkscape:connector-curvature="0" />
      <path
         id="path4213"
         style="fill:none;stroke:#000000;stroke-opacity:1;stroke-width:0.09;stroke-miterlimit:4;stroke-dasharray:none"
         d="m -70.866142,875.19685 a 106.29921,106.29921 0 1 0 -212.598428,0 106.29921,106.29921 0 1 0 212.598428,0 z"
         inkscape:connector-curvature="0" />
    </g>
    <g
       id="g4277"
       inkscape:label="0"
       transform="translate(712.70473,-0.49999528)"
       style="fill:none;stroke:#000000;stroke-opacity:1;stroke-width:0.09;stroke-miterlimit:4;stroke-dasharray:none">
      <path
         id="path4279"
         style="fill:none;stroke:#000000;stroke-opacity:1;stroke-width:0.09;stroke-miterlimit:4;stroke-dasharray:none"
         d="m -17.096457,720.88583 a 5.757874,5.757874 0 1 0 -11.515748,0 5.757874,5.757874 0 1 0 11.515748,0 z"
         inkscape:connector-curvature="0" />
      <path
         id="path4281"
         style="fill:none;stroke:#000000;stroke-opacity:1;stroke-width:0.09;stroke-miterlimit:4;stroke-dasharray:none"
         d="m -325.7185,1029.5079 a 5.757875,5.757875 0 1 0 -11.51575,0 5.757875,5.757875 0 1 0 11.51575,0 z"
         inkscape:connector-curvature="0" />
      <path
         id="path4283"
         style="fill:none;stroke:#000000;stroke-opacity:1;stroke-width:0.09;stroke-miterlimit:4;stroke-dasharray:none"
         d="m -17.096457,1029.5079 a 5.757874,5.757874 0 1 0 -11.515748,0 5.757874,5.757874 0 1 0 11.515748,0 z"
         inkscape:connector-curvature="0" />
      <path
         id="path4285"
         style="fill:none;stroke:#000000;stroke-opacity:1;stroke-width:0.09;stroke-miterlimit:4;stroke-dasharray:none"
         d="m -325.7185,720.88583 a 5.757875,5.757875 0 1 0 -11.51575,0 5.757875,5.757875 0 1 0 11.51575,0 z"
         inkscape:connector-curvature="0" />
      <path
         id="path4287"
         style="fill:none;stroke:#000000;stroke-opacity:1;stroke-width:0.09;stroke-miterlimit:4;stroke-dasharray:none"
         d="m -354.33071,720.88583 a 22.854331,22.854331 0 0 1 22.85433,-22.85433 l 308.622049,0 A 22.854331,22.854331 0 0 1 0,720.88583 l 0,308.62207 a 22.854331,22.854331 0 0 1 -22.854331,22.8543 l -308.622049,0 a 22.854331,22.854331 0 0 1 -22.85433,-22.8543 l 0,-308.62207 z"
         inkscape:connector-curvature="0" />
    </g>
    <g
       id="layer1-7"
       inkscape:label="Layer 1"
       transform="translate(-75.700501,498.67812)">
      <text
         transform="matrix(0.92114314,-0.389224,0.389224,0.92114314,0,0)"
         sodipodi:linespacing="125%"
         id="text4196"
         y="527.32751"
         x="-71.960136"
         style="font-style:normal;font-variant:normal;font-weight:normal;font-stretch:normal;font-size:37.5px;line-height:125%;font-family:Imperator;-inkscape-font-specification:Imperator;text-align:center;letter-spacing:0px;word-spacing:0px;text-anchor:middle;fill:#000000;fill-opacity:1;stroke:none;stroke-width:1px;stroke-linecap:butt;stroke-linejoin:miter;stroke-opacity:1"
         xml:space="preserve"><tspan
           style="font-style:normal;font-variant:normal;font-weight:normal;font-stretch:normal;font-family:Arizonia;-inkscape-font-specification:Arizonia"
           y="527.32751"
           x="-71.960136"
           id="tspan4198"
           sodipodi:role="line">A</tspan></text>
      <text
         sodipodi:linespacing="125%"
         id="text4200"
         y="510.92041"
         x="178.797"
         style="font-style:normal;font-variant:normal;font-weight:normal;font-stretch:normal;font-size:37.5px;line-height:125%;font-family:Imperator;-inkscape-font-specification:Imperator;text-align:center;letter-spacing:0px;word-spacing:0px;text-anchor:middle;fill:#000000;fill-opacity:1;stroke:none;stroke-width:1px;stroke-linecap:butt;stroke-linejoin:miter;stroke-opacity:1"
         xml:space="preserve"><tspan
           style="font-style:normal;font-variant:normal;font-weight:normal;font-stretch:normal;font-size:18.75px;font-family:'Poiret One';-inkscape-font-specification:'Poiret One'"
           y="510.92041"
           x="178.797"
           id="tspan4202"
           sodipodi:role="line">llwine</tspan></text>
      <text
         sodipodi:linespacing="125%"
         id="text4204"
         y="517.73901"
         x="151.77541"
         style="font-style:normal;font-variant:normal;font-weight:normal;font-stretch:normal;font-size:37.5px;line-height:125%;font-family:Imperator;-inkscape-font-specification:Imperator;text-align:center;letter-spacing:0px;word-spacing:0px;text-anchor:middle;fill:#000000;fill-opacity:1;stroke:none;stroke-width:1px;stroke-linecap:butt;stroke-linejoin:miter;stroke-opacity:1"
         xml:space="preserve"><tspan
           style="font-style:normal;font-variant:normal;font-weight:normal;font-stretch:normal;font-size:10px;font-family:'Poiret One';-inkscape-font-specification:'Poiret One'"
           y="517.73901"
           x="151.77541"
           id="tspan4206"
           sodipodi:role="line">esigns</tspan></text>
    </g>
  </g>
</svg>
